<?xml version="1.0" encoding="UTF-8" standalone="no"?>
<!DOCTYPE svg PUBLIC "-//W3C//DTD SVG 1.1//EN" "http://www.w3.org/Graphics/SVG/1.1/DTD/svg11.dtd">
<svg width="100%" height="100%" viewBox="0 0 261 90" version="1.1" xmlns="http://www.w3.org/2000/svg" xmlns:xlink="http://www.w3.org/1999/xlink" xml:space="preserve" style="fill-rule:evenodd;clip-rule:evenodd;stroke-linejoin:round;stroke-miterlimit:1.41421;">
    <rect x="17.562" y="0" width="71.311" height="90.193" style="fill:#8cc63f;fill-rule:nonzero;"/>
    <path d="M56.585,79.5L81.521,32.641L63.981,32.641L39.046,79.5L56.585,79.5Z" style="fill:#70a025;fill-rule:nonzero;"/>
    <path d="M88.913,79.5L88.924,46.596L71.374,79.5L88.913,79.5Z" style="fill:#70a025;fill-rule:nonzero;"/>
    <path d="M24.605,79.5L49.541,32.641L32.001,32.641L17.562,59.777L17.562,79.5L24.605,79.5Z" style="fill:#70a025;fill-rule:nonzero;"/>
    <path d="M24.937,79.5L0,32.641L17.54,32.641L42.475,79.5L24.937,79.5Z" style="fill:#fff;fill-rule:nonzero;"/>
    <path d="M56.916,79.5L31.98,32.641L49.519,32.641L74.455,79.5L56.916,79.5Z" style="fill:#fff;fill-rule:nonzero;"/>
    <path d="M88.895,79.5L63.96,32.641L81.499,32.641L106.434,79.5L88.895,79.5Z" style="fill:#fff;fill-rule:nonzero;"/>
    <path d="M119.762,71.162L117.108,64.683L114.453,71.162L119.762,71.162ZM115.138,59.402L119.191,59.402L127.753,79.523L123.158,79.523L121.331,75.043L112.884,75.043L111.057,79.523L106.579,79.524L115.138,59.402Z" style="fill:#8cc63f;fill-rule:nonzero;"/>
    <path d="M135.962,79.838C133.278,79.838 131.167,79.096 129.626,77.613C128.085,76.127 127.314,73.91 127.314,70.961L127.314,59.545L131.709,59.545L131.709,70.848C131.709,72.484 132.09,73.715 132.851,74.543C133.611,75.371 134.667,75.785 136.019,75.785C137.37,75.785 138.426,75.385 139.187,74.586C139.948,73.787 140.329,72.59 140.329,70.99L140.329,59.545L144.724,59.545L144.724,70.818C144.724,72.342 144.52,73.664 144.11,74.785C143.7,75.91 143.116,76.846 142.355,77.598C141.594,78.35 140.671,78.91 139.587,79.281C138.502,79.652 137.294,79.838 135.962,79.838" style="fill:#8cc63f;fill-rule:nonzero;"/>
    <path d="M154.37,79.808C152.848,79.808 151.353,79.548 149.889,79.025C148.424,78.501 147.092,77.697 145.893,76.613L148.49,73.501C149.404,74.244 150.341,74.833 151.302,75.271C152.263,75.708 153.314,75.927 154.455,75.927C155.369,75.927 156.078,75.761 156.582,75.427C157.086,75.095 157.338,74.634 157.338,74.044L157.338,73.986C157.338,73.701 157.285,73.449 157.181,73.23C157.075,73.011 156.875,72.806 156.58,72.617C156.284,72.427 155.873,72.236 155.349,72.046C154.824,71.855 154.142,71.656 153.304,71.447C152.292,71.201 151.376,70.923 150.557,70.619C149.735,70.314 149.039,69.939 148.467,69.492C147.894,69.044 147.451,68.488 147.137,67.822C146.821,67.156 146.664,66.328 146.664,65.337L146.664,65.283C146.664,64.369 146.834,63.546 147.174,62.812C147.515,62.081 147.992,61.449 148.605,60.915C149.221,60.382 149.954,59.972 150.807,59.687C151.66,59.402 152.599,59.259 153.628,59.259C155.094,59.259 156.439,59.478 157.666,59.915C158.893,60.353 160.021,60.982 161.049,61.8L158.766,65.111C157.871,64.501 156.996,64.021 156.139,63.669C155.283,63.316 154.428,63.142 153.57,63.142C152.715,63.142 152.072,63.308 151.644,63.64C151.217,63.974 151.002,64.386 151.002,64.882L151.002,64.939C151.002,65.263 151.064,65.544 151.187,65.781C151.312,66.019 151.535,66.234 151.86,66.423C152.184,66.615 152.629,66.794 153.191,66.966C153.754,67.138 154.465,67.337 155.323,67.566C156.334,67.831 157.236,68.13 158.027,68.464C158.819,68.798 159.486,69.197 160.031,69.663C160.574,70.128 160.984,70.675 161.262,71.304C161.538,71.931 161.676,72.683 161.676,73.558L161.676,73.617C161.676,74.605 161.496,75.486 161.138,76.255C160.778,77.027 160.277,77.673 159.635,78.197C158.992,78.72 158.224,79.119 157.334,79.396C156.442,79.671 155.455,79.808 154.37,79.808" style="fill:#8cc63f;fill-rule:nonzero;"/>
    <path d="M168.348,63.597L162.269,63.597L162.269,59.544L178.822,59.544L178.822,63.597L172.744,63.597L172.744,79.523L168.348,79.523L168.348,63.597Z" style="fill:#8cc63f;fill-rule:nonzero;"/>
    <path d="M188.74,69.248C189.824,69.248 190.656,68.992 191.237,68.478C191.817,67.965 192.107,67.279 192.107,66.424L192.107,66.367C192.107,65.416 191.803,64.701 191.194,64.227C190.586,63.75 189.738,63.512 188.654,63.512L184.287,63.512L184.287,69.248L188.74,69.248ZM179.892,59.545L189.025,59.545C191.555,59.545 193.496,60.221 194.847,61.572C195.989,62.713 196.56,64.236 196.56,66.139L196.56,66.195C196.56,67.812 196.165,69.131 195.376,70.148C194.586,71.166 193.553,71.914 192.279,72.389L197.16,79.523L192.021,79.523L187.741,73.131L187.683,73.131L184.287,73.131L184.287,79.523L179.892,79.523L179.892,59.545Z" style="fill:#8cc63f;fill-rule:nonzero;"/>
    <path d="M210.941,71.162L208.286,64.683L205.632,71.162L210.941,71.162ZM206.316,59.402L210.369,59.402L218.931,79.523L214.337,79.523L212.51,75.043L204.062,75.043L202.235,79.523L197.754,79.523L206.316,59.402Z" style="fill:#8cc63f;fill-rule:nonzero;"/>
    <path d="M219.625,59.545L224.021,59.545L224.021,75.557L233.981,75.557L233.981,79.524L219.625,79.524L219.625,59.545Z" style="fill:#8cc63f;fill-rule:nonzero;"/>
    <rect x="235.051" y="59.545" width="4.396" height="19.979" style="fill:#8cc63f;fill-rule:nonzero;"/>
    <path d="M253.344,71.162L250.689,64.683L248.034,71.162L253.344,71.162ZM248.72,59.402L252.773,59.402L261.335,79.523L256.74,79.523L254.913,75.043L246.465,75.043L244.638,79.523L240.157,79.523L248.72,59.402Z" style="fill:#8cc63f;fill-rule:nonzero;"/>
    <path d="M106.748,33.617L111.457,33.617L115.596,47.146L120.076,33.56L123.844,33.56L128.325,47.146L132.463,33.617L137.059,33.617L130.237,53.74L126.412,53.74L121.903,40.668L117.394,53.74L113.569,53.74L106.748,33.617Z" style="fill:#4d4d4d;fill-rule:nonzero;"/>
    <path d="M146.112,43.693C147.216,43.693 148.071,43.402 148.68,42.822C149.29,42.242 149.594,41.523 149.594,40.668L149.594,40.611C149.594,39.621 149.275,38.869 148.638,38.355C148.001,37.841 147.13,37.586 146.026,37.586L142.63,37.586L142.63,43.693L146.112,43.693ZM138.235,33.617L146.397,33.617C147.596,33.617 148.667,33.785 149.608,34.117C150.549,34.451 151.349,34.922 152.007,35.529C152.663,36.138 153.166,36.867 153.518,37.713C153.87,38.56 154.047,39.496 154.047,40.525L154.047,40.582C154.047,41.742 153.837,42.759 153.419,43.634C153,44.509 152.424,45.244 151.692,45.834C150.96,46.423 150.103,46.865 149.124,47.16C148.143,47.457 147.092,47.603 145.969,47.603L142.63,47.603L142.63,53.595L138.235,53.595L138.235,33.617Z" style="fill:#4d4d4d;fill-rule:nonzero;"/>
</svg>
