<?xml version="1.0" encoding="UTF-8" standalone="no"?>
<!DOCTYPE svg PUBLIC "-//W3C//DTD SVG 1.1//EN" "http://www.w3.org/Graphics/SVG/1.1/DTD/svg11.dtd">
<svg width="100%" height="100%" viewBox="0 0 106 90" version="1.1" xmlns="http://www.w3.org/2000/svg" xmlns:xlink="http://www.w3.org/1999/xlink" xml:space="preserve" style="fill-rule:evenodd;clip-rule:evenodd;stroke-linejoin:round;stroke-miterlimit:1.41421;">
    <rect x="17.562" y="0" width="71.311" height="90.193" style="fill:#8cc63f;fill-rule:nonzero;"/>
    <path d="M56.585,79.5L81.521,32.641L63.981,32.641L39.046,79.5L56.585,79.5Z" style="fill:#70a025;fill-rule:nonzero;"/>
    <path d="M88.913,79.5L88.924,46.596L71.374,79.5L88.913,79.5Z" style="fill:#70a025;fill-rule:nonzero;"/>
    <path d="M24.605,79.5L49.541,32.641L32.001,32.641L17.562,59.777L17.562,79.5L24.605,79.5Z" style="fill:#70a025;fill-rule:nonzero;"/>
    <path d="M24.937,79.5L0,32.641L17.54,32.641L42.475,79.5L24.937,79.5Z" style="fill:#fff;fill-rule:nonzero;"/>
    <path d="M56.916,79.5L31.98,32.641L49.519,32.641L74.455,79.5L56.916,79.5Z" style="fill:#fff;fill-rule:nonzero;"/>
    <path d="M88.895,79.5L63.96,32.641L81.499,32.641L106.434,79.5L88.895,79.5Z" style="fill:#fff;fill-rule:nonzero;"/>
</svg>
