<?xml version="1.0" encoding="UTF-8" standalone="no"?><!DOCTYPE svg PUBLIC "-//W3C//DTD SVG 1.1//EN" "http://www.w3.org/Graphics/SVG/1.1/DTD/svg11.dtd"><svg width="100%" height="100%" viewBox="0 0 132 162" version="1.1" xmlns="http://www.w3.org/2000/svg" xmlns:xlink="http://www.w3.org/1999/xlink" xml:space="preserve" style="fill-rule:evenodd;clip-rule:evenodd;stroke-linejoin:round;stroke-miterlimit:10;"><path d="M58.142,127.952c-21.137,-0.921 -37.991,-18.347 -37.991,-39.711c0,-13.003 6.245,-24.548 15.897,-31.801c6.851,3.555 12.235,-2.962 16.486,-6.079c12.185,3.117 31.798,1.309 45.088,25.309c2.016,3.643 2.028,8.178 2.028,12.572c0,3.946 -0.574,7.759 -1.645,11.357c-9.765,-3.613 -21.383,0.922 -24.785,9.706c-6.516,11.617 -15.078,18.647 -15.078,18.647Z" style="fill:#70a025;"/><path d="M44.013,79.177c-0.047,0.035 -0.092,0.074 -0.138,0.11c0.069,-0.026 0.139,-0.051 0.209,-0.076c-0.023,-0.012 -0.047,-0.022 -0.071,-0.034Z" style="fill:#68b0ca;"/><path d="M51.617,161.643c-11.031,0 -22.214,-6.981 -24.819,-9.414c-2.459,-2.297 -6.571,-6.608 -6.483,-11.291c0.106,-5.695 3.948,-9.518 9.367,-9.518c5.159,0 10.391,3.411 13.657,8.903c2.467,4.15 7.06,5.022 10.478,5.022c0.002,0 0.002,0 0.002,0c8.111,-0.002 19.125,-4.925 26.75,-13.481c-2.382,0.367 -4.464,0.483 -6.14,0.483c-0.222,0 -0.443,-0.003 -0.663,-0.006c-2.442,2.97 -5.865,4.581 -9.828,4.581c-2.629,0 -6.842,-0.854 -8.411,-5.973c-7.242,-0.735 -14.078,-3.26 -19.992,-7.338c-0.184,0.612 -0.451,1.21 -0.819,1.774c-1.16,1.775 -3.076,2.752 -5.393,2.752c-0.754,0 -1.569,-0.104 -2.422,-0.308c-8.665,-2.08 -19.533,-14.174 -21.017,-21.348c-0.729,-3.522 -0.025,-6.819 1.981,-9.284c1.817,-2.231 4.551,-3.511 7.503,-3.511c0.612,0 1.227,0.054 1.836,0.161c-0.26,-1.918 -0.39,-3.855 -0.39,-5.801c0,-7.706 2.04,-15.201 5.92,-21.804c-0.154,-0.42 -0.274,-0.86 -0.361,-1.322c-0.432,-2.3 0.318,-4.756 2.111,-6.916c0.271,-0.327 0.562,-0.642 0.867,-0.942c-2.645,-0.871 -3.831,-2.745 -4.015,-4.413c-0.254,-2.314 1.268,-4.374 3.62,-4.896c1.402,-0.312 6.589,-3.227 9.347,-5.849c8.158,-12.645 23.223,-20.001 40.237,-19.48c7.853,0.237 14.949,2.628 21.108,7.106c3.846,0.22 9.251,0.248 13.11,0.248c2.4,0 4.806,-0.012 7.059,-0.023c1.995,-0.01 3.873,-0.02 5.524,-0.02c5.114,0 6.386,0.093 7.166,0.288c1.86,0.465 3.092,2.113 3.141,4.198c0.091,3.95 -4.291,11.15 -13.989,14.059c-1.575,0.472 -3.24,0.712 -4.95,0.712c-0.732,0 -1.476,-0.044 -2.229,-0.13c0.498,1.159 0.961,2.347 1.391,3.56c6.183,17.473 7.662,56.66 -10.997,70.915c-5.094,17.214 -22.609,32.865 -42.157,37.495c-2.274,0.538 -4.663,0.811 -7.1,0.811Zm-21.934,-23.473c-1.084,0 -2.535,0.309 -2.621,2.985c-0.029,0.897 0.684,2.622 2.773,4.78c4.177,4.314 12.775,8.957 21.782,8.957c1.914,0 3.779,-0.211 5.544,-0.63c14.143,-3.35 27.433,-13.561 34.055,-25.394l-0.305,0.169c-7.629,13.204 -23.392,23.056 -37.089,23.058c-0.002,0 -0.003,0 -0.004,0c-7.307,0 -13.089,-2.956 -16.28,-8.323c-2.302,-3.87 -5.604,-5.602 -7.855,-5.602Zm28.655,-13.92c0.436,0 0.875,0.084 1.292,0.257c1.172,0.485 1.973,1.588 2.073,2.854c0.22,2.812 0.852,2.812 2.235,2.812c2.339,0 4.009,-0.962 5.256,-3.029c0.658,-1.09 1.875,-1.719 3.143,-1.622c0.673,0.05 1.378,0.076 2.093,0.076c3.277,0 8.427,-0.534 14.354,-3.078c1.651,-0.708 3.571,0.003 4.362,1.618c0.063,0.129 0.117,0.26 0.163,0.392c0.548,-1.353 1.007,-2.716 1.364,-4.086c0.205,-0.783 0.684,-1.466 1.352,-1.925c15.998,-11.016 15.232,-47.597 9.482,-63.845c-1.217,-3.439 -2.742,-6.639 -4.534,-9.508c-0.793,-1.271 -0.654,-2.913 0.343,-4.031c0.997,-1.118 2.609,-1.447 3.965,-0.806c2.682,1.271 5.181,1.915 7.428,1.915c1.05,0 2.064,-0.144 3.01,-0.428c4.241,-1.272 6.776,-3.558 8.076,-5.319c-0.672,-0.006 -1.482,-0.01 -2.453,-0.01c-1.641,0 -3.508,0.01 -5.491,0.019c-2.264,0.011 -4.68,0.023 -7.093,0.023c-4.302,0 -10.493,-0.034 -14.57,-0.329c-0.659,-0.047 -1.29,-0.288 -1.814,-0.69c-5.204,-4.001 -11.272,-6.134 -18.037,-6.338c-0.501,-0.016 -1.001,-0.022 -1.496,-0.022c-14.101,0 -26.454,6.242 -33.047,16.698c-0.134,0.213 -0.291,0.409 -0.468,0.587c-0.852,0.851 -1.936,1.758 -3.129,2.644c0.931,0.514 1.593,1.455 1.722,2.567c0.184,1.602 1.209,2.218 1.326,2.283c1.514,0.846 2.141,2.701 1.449,4.291c-0.679,1.565 -2.418,2.373 -4.046,1.893c-0.002,0.001 -0.004,0.003 -0.005,0.004c-1.169,0.975 -2.828,1.042 -4.063,0.201c-0.693,0.185 -2.056,0.945 -2.953,2.06c-0.515,0.639 -0.653,1.126 -0.621,1.298c0.039,0.207 0.096,0.328 0.137,0.372c1.04,1.138 1.178,2.835 0.334,4.126c-3.868,5.916 -5.913,12.788 -5.913,19.874c0,3.918 0.629,7.792 1.87,11.514c0.515,1.544 -0.145,3.235 -1.569,4.021c-1.424,0.787 -3.206,0.447 -4.24,-0.811c-0.573,-0.698 -0.886,-0.966 -0.994,-1.049c-1.091,-0.84 -2.22,-1.284 -3.263,-1.284c-0.926,0 -1.731,0.363 -2.268,1.022c-0.7,0.859 -0.915,2.158 -0.606,3.653c0.995,4.808 10.242,14.774 15.983,16.152c0.277,0.067 0.49,0.099 0.646,0.113c0.069,-0.713 -0.124,-2.06 -0.525,-2.978c-0.228,-0.52 -0.535,-1.18 -0.898,-1.929c-0.73,-1.506 -0.246,-3.318 1.136,-4.26c1.383,-0.943 3.246,-0.731 4.381,0.499c6.388,6.917 15.001,11.029 24.328,11.633c0.258,-0.062 0.525,-0.094 0.793,-0.094Z"/><path d="M58.179,128.883c-0.016,0 -0.033,0 -0.049,-0.001c-21.907,-0.954 -39.067,-18.891 -39.067,-40.835c0,-12.976 5.958,-24.895 16.346,-32.701c0.498,-0.372 1.202,-0.273 1.576,0.224c0.373,0.496 0.273,1.202 -0.224,1.575c-9.817,7.376 -15.448,18.64 -15.448,30.901c0,20.736 16.215,37.686 36.915,38.587c0.62,0.027 1.102,0.552 1.075,1.173c-0.027,0.605 -0.525,1.077 -1.124,1.077Z"/><path d="M34.136,64.658c-10.531,10.846 -10.531,28.431 0,39.277c10.532,10.846 27.607,10.846 38.139,0c10.531,-10.846 10.531,-28.431 0,-39.277c-10.532,-10.846 -27.607,-10.846 -38.139,0" style="fill:#8bc63f;"/><path d="M50.984,109.838c-1.704,0.11 -3.089,0.012 -4.782,-0.339c-0.511,-5.09 -0.84,-11.449 1.725,-22.533c4.658,12.066 9.789,20.912 9.825,20.961c-0.873,0.416 -3.526,1.682 -6.768,1.911m-7.812,-1.286c-13.329,-6.057 -15.774,-20.415 -11.302,-31.468c0.169,10.938 3.232,19.467 11.302,31.468m18.04,-2.7c2.114,-9.112 5.629,-17.823 7.697,-26.948c0.399,-1.764 0.744,-4.509 0.123,-7.57c6.159,9.623 5.452,24.569 -7.82,34.518m-27.469,-32.434c6.016,-9.261 17.522,-16.793 30.151,-7.544c-0.085,-0.004 -8.096,0.364 -2.273,8.978c3.146,4.654 3.347,8.388 0.858,15.982c-0.899,3.744 -1.17,4.874 -1.973,8.729c-3.842,-9.182 -6.978,-17.001 -9.453,-26.998c2.176,-0.32 4.643,-0.681 3.376,-2.082c-0.16,-0.176 -11.629,0.961 -11.738,0.98c-0.881,0.15 -1.035,1.187 -1.037,1.197c-0.091,0.818 0.057,0.809 2.542,0.66c0.655,3.53 0.953,5.141 2.574,10.293c-1.17,4.862 -2.38,9.89 -2.546,17.676c-5.226,-10.402 -7.318,-17.626 -7.717,-26.658c0.742,-0.451 1.733,-0.274 2.389,-0.946c0.447,-0.457 0.664,-1.491 0.107,-1.611c-1.978,-0.427 -3.486,0.973 -5.26,1.344m18.159,-13.687c-19.771,1.632 -32.61,31.425 -15.123,47.017c17.722,15.801 39.618,-4.615 38.861,-23.559c-0.587,-14.687 -12.747,-23.986 -23.738,-23.458" style="fill:#fff;"/><path d="M58.178,127.758c-21.136,-0.921 -36.113,-18.43 -37.99,-39.711c-0.75,-8.503 1.325,-16.233 4.315,-19.486c2.198,-2.391 1.7,22.57 23.436,24.106c30.87,2.183 37.418,-33.682 49.719,-17.191c2.49,3.338 2.029,8.178 2.029,12.572c0,3.946 -0.574,7.759 -1.645,11.357c-9.765,-3.613 -21.384,0.922 -24.785,9.706c-6.517,11.617 -15.079,18.647 -15.079,18.647Z" style="fill:#ff9300;"/><path d="M26.003,65.561c1.447,10.032 2.277,24.156 21.936,27.106c25.983,3.9 30.968,-23.258 44.482,-22.2" style="fill:none;stroke:#000;stroke-width:1.88px;"/><path d="M34.189,53.297c-9.75,2.75 -10.751,-1.749 -8.501,-2.25c2.25,-0.5 8.25,-3.999 11.25,-6.999l-2.749,9.249Z" style="fill:#ff9a00;"/><path d="M97.939,121.298c-4.25,16.25 -21,31.749 -40.001,36.249c-16.344,3.871 -34.5,-8.749 -34.249,-16.5c0.281,-8.727 11.25,-8.25 16.75,1.001c8.425,14.171 37.25,4.249 48,-15.5l9.5,-5.25Z" style="fill:#ff9a00;"/><path d="M36.085,56.246c-0.11,0.083 -0.215,0.174 -0.324,0.258c0.163,-0.06 0.326,-0.12 0.49,-0.178c-0.055,-0.028 -0.11,-0.05 -0.166,-0.08Z" style="fill:#68b0ca;"/><path d="M47.066,54.56c-0.168,-0.002 -0.333,-0.012 -0.502,-0.012c-3.618,0 -7.088,0.63 -10.313,1.777c4.112,2.043 7.692,0.477 10.815,-1.765Z" style="fill:#68b0ca;"/><path d="M71.689,128.859c6.099,0.542 16.119,-0.586 26.25,-7.561c18.287,-12.592 16.5,-51.501 10.75,-67.75c-5.751,-16.25 -17.751,-27.251 -34.251,-27.75c-16.5,-0.5 -30.249,6.75 -37.5,18.25c-4.89,7.755 -1.249,11.999 1.001,12.999c2.25,1.001 11.749,-2.749 14.5,-7.749c6.5,3.999 13.749,2.249 20,0.249l12,3.501c-9.5,-3.75 -21.501,-1.501 -27.75,3.999c-6.251,5.501 -2,9.501 2.749,10.001c4.751,0.499 14,-3.75 21.251,-2.25c7.249,1.5 9.473,4.156 17.224,11.156c0,0 4.251,17.003 0,23.521c-7.368,-4.251 -20.688,0.567 -24.655,9.635l-1.569,19.749Z" style="fill:#ffd800;"/><path d="M98.043,100.529c-0.107,0 -0.214,-0.015 -0.322,-0.046c-0.595,-0.177 -0.934,-0.803 -0.757,-1.399c1.06,-3.563 1.599,-7.276 1.599,-11.036c0,-4.18 -0.663,-8.29 -1.971,-12.217c-0.197,-0.589 0.122,-1.226 0.712,-1.423c0.588,-0.195 1.226,0.123 1.422,0.712c1.385,4.157 2.086,8.506 2.086,12.928c0,3.977 -0.569,7.906 -1.693,11.677c-0.144,0.489 -0.591,0.804 -1.076,0.804Z"/><path d="M74.391,130.098c-1.123,0 -2.067,-0.053 -2.801,-0.118c-0.619,-0.055 -1.076,-0.602 -1.021,-1.221c0.055,-0.619 0.614,-1.072 1.22,-1.02c3.945,0.348 14.326,0.334 25.513,-7.368c17.607,-12.123 16.058,-50.254 10.328,-66.447c-5.91,-16.7 -18.019,-26.541 -33.224,-27.001c-15.572,-0.471 -29.22,6.155 -36.515,17.725c-1.994,3.164 -2.684,6.04 -1.991,8.317c0.504,1.659 1.66,2.682 2.497,3.055c1.418,0.631 10.436,-2.499 13.057,-7.265c0.148,-0.269 0.4,-0.467 0.699,-0.545c0.298,-0.078 0.615,-0.031 0.877,0.13c6.153,3.786 13.069,2.056 19.068,0.136c0.594,-0.188 1.224,0.138 1.414,0.729c0.189,0.592 -0.137,1.225 -0.729,1.415c-6.616,2.116 -13.593,3.574 -19.971,0.187c-3.549,4.929 -12.556,8.5 -15.328,7.269c-1.332,-0.592 -3.013,-2.073 -3.737,-4.456c-0.618,-2.037 -0.732,-5.455 2.242,-10.172c7.724,-12.252 22.109,-19.277 38.485,-18.774c16.183,0.489 29.041,10.877 35.277,28.499c2.695,7.617 4.884,21.614 3.699,35.716c-0.939,11.183 -4.282,26.045 -14.871,33.336c-9.723,6.692 -18.915,7.873 -24.188,7.873Z"/><path d="M73.688,109.673c-0.167,0 -0.336,-0.037 -0.495,-0.115c-0.558,-0.274 -0.789,-0.948 -0.515,-1.506c3.022,-6.161 8.713,-10.094 15.612,-10.793c5.69,-0.578 11.363,1.212 13.788,4.351c0.38,0.491 0.29,1.199 -0.202,1.578c-0.491,0.38 -1.2,0.29 -1.578,-0.202c-1.944,-2.515 -6.893,-3.981 -11.782,-3.488c-3.59,0.364 -10.16,2.087 -13.819,9.546c-0.194,0.397 -0.594,0.629 -1.009,0.629Z"/><path d="M93.938,32.798c-4.491,-0.364 -0.999,3 0.501,4.25c1.5,1.249 12.249,10.999 22.25,7.999c10,-3 13,-11.249 10.999,-11.749c-1.999,-0.5 -24.499,0.25 -33.75,-0.5Z" style="fill:#ff9a00;"/><path d="M112.707,46.743c-0.001,0 -0.001,0 -0.001,0c-3.937,0 -10.38,-1.493 -18.718,-8.602l-0.269,-0.228c-3.687,-3.071 -3.178,-4.474 -3.012,-4.936c0.32,-0.884 1.197,-1.331 2.607,-1.331c0.216,0 0.453,0.009 0.715,0.031c3.897,0.316 10.251,0.353 14.691,0.353c2.417,0 4.838,-0.012 7.105,-0.024c2,-0.01 3.881,-0.019 5.534,-0.019c4.764,0 6.059,0.084 6.603,0.22c0.874,0.219 1.412,0.992 1.436,2.067c0.063,2.73 -3.609,9.219 -12.386,11.851c-1.367,0.41 -2.815,0.618 -4.305,0.618Zm-19.71,-12.835c0.293,0.479 1.013,1.318 2.162,2.276l0.289,0.245c7.817,6.665 13.7,8.063 17.258,8.064c0.001,0 0.002,0 0.002,0c1.27,0 2.501,-0.176 3.658,-0.523c5.49,-1.647 8.863,-5.049 10.188,-7.685c0.495,-0.985 0.595,-1.631 0.595,-1.935c-0.747,-0.076 -2.689,-0.114 -5.79,-0.114c-1.65,0 -3.526,0.009 -5.522,0.02c-2.27,0.011 -4.696,0.023 -7.116,0.023c-4.479,0 -10.894,-0.038 -14.873,-0.36c-0.347,-0.028 -0.653,-0.028 -0.851,-0.011Z"/><path d="M28.759,55.311c-2.545,0 -3.817,-0.77 -4.427,-1.387c-0.668,-0.676 -0.924,-1.564 -0.685,-2.377c0.236,-0.803 0.908,-1.4 1.798,-1.598c1.938,-0.431 7.74,-3.739 10.698,-6.696c0.44,-0.44 1.152,-0.44 1.591,0c0.44,0.438 0.44,1.152 0,1.59c-3.099,3.099 -9.275,6.741 -11.801,7.303c-0.105,0.023 -0.138,0.059 -0.139,0.059c0.011,-0.003 0.078,0.122 0.327,0.291c0.469,0.316 2.408,1.23 7.763,-0.281c0.597,-0.166 1.22,0.18 1.389,0.778c0.169,0.598 -0.18,1.219 -0.777,1.388c-2.407,0.677 -4.281,0.93 -5.737,0.93Z"/><path d="M50.438,42.797c-1.788,1.342 -1.249,3.001 0.75,3.251c2.001,0.25 2.157,0.382 4.001,-1.001c1.999,-1.5 2.25,-4 0,-3.75c-2.25,0.251 -3.75,0.75 -4.751,1.5Z"/><path d="M45.188,43.798c0,1.243 -1.007,2.25 -2.25,2.25c-1.242,0 -2.25,-1.007 -2.25,-2.25c0,-1.243 1.008,-2.25 2.25,-2.25c1.243,0 2.25,1.007 2.25,2.25"/><path d="M71.189,37.548c0,1.243 -1.008,2.25 -2.25,2.25c-1.243,0 -2.25,-1.007 -2.25,-2.25c0,-1.242 1.007,-2.25 2.25,-2.25c1.242,0 2.25,1.008 2.25,2.25"/><path d="M51.695,159.382c-8.75,0 -17.331,-3.746 -22.773,-8.195c-4.14,-3.384 -6.456,-7.093 -6.357,-10.176c0.119,-3.703 1.983,-6.29 5.115,-7.096c3.976,-1.027 9.97,1.242 13.725,7.558c3.093,5.199 8.711,6.207 12.856,6.117c12.353,-0.234 26.621,-9.513 33.19,-21.58c0.297,-0.546 0.981,-0.748 1.525,-0.451c0.546,0.297 0.748,0.98 0.451,1.526c-6.925,12.723 -22.024,22.506 -35.122,22.755c-6.756,0.111 -11.989,-2.436 -14.832,-7.218c-3.19,-5.364 -8.062,-7.345 -11.232,-6.528c-2.124,0.546 -3.341,2.319 -3.427,4.989c-0.076,2.343 1.993,5.469 5.533,8.362c6.364,5.204 17.286,9.387 27.333,7.007c18.471,-4.374 34.944,-19.279 39.171,-35.44c0.158,-0.602 0.768,-0.961 1.374,-0.803c0.6,0.157 0.96,0.771 0.803,1.373c-4.425,16.918 -21.596,32.504 -40.829,37.06c-2.149,0.509 -4.332,0.74 -6.504,0.74Z"/><path d="M100.439,78.923c-0.27,0 -0.54,-0.096 -0.755,-0.291l-0.889,-0.804c-7.275,-6.579 -11.667,-10.549 -18.334,-11.929c-4.013,-0.829 -8.8,0.232 -13.024,1.169c-3.202,0.711 -5.965,1.326 -8.116,1.098c-3.304,-0.347 -5.922,-2.086 -6.669,-4.431c-0.526,-1.651 -0.382,-4.298 3.294,-7.533c6.866,-6.043 19.563,-7.889 28.906,-4.201c0.578,0.228 0.861,0.881 0.634,1.459c-0.229,0.578 -0.883,0.863 -1.46,0.633c-8.625,-3.403 -20.305,-1.736 -26.593,3.798c-2.156,1.898 -3.093,3.731 -2.637,5.161c0.468,1.47 2.381,2.626 4.761,2.876c1.789,0.186 4.51,-0.417 7.393,-1.057c4.445,-0.986 9.483,-2.105 13.967,-1.176c7.267,1.504 12.089,5.864 19.387,12.463l0.89,0.803c0.46,0.417 0.496,1.128 0.08,1.59c-0.223,0.246 -0.529,0.372 -0.835,0.372Z"/><path d="M76.705,123.287c0,0 -1.908,11.129 -12.401,11.129c-10.494,0 -6.042,-12.719 -7.313,-20.986c-1.273,-8.268 -6.36,-19.079 1.271,-24.167c7.632,-5.087 16.853,9.857 18.443,15.581c2.226,7.632 1.908,12.402 0,18.443Z" style="fill:#ffd800;"/><path d="M64.304,136.324c-2.774,0 -4.949,-0.796 -6.465,-2.364c-2.911,-3.01 -2.741,-8.115 -2.577,-13.053c0.083,-2.492 0.169,-5.07 -0.156,-7.188c-0.268,-1.743 -0.716,-3.613 -1.19,-5.591c-1.767,-7.381 -3.769,-15.748 3.288,-20.452c1.354,-0.902 2.824,-1.36 4.37,-1.36c8.287,0 15.591,13.056 16.969,18.018c2.452,8.403 1.872,13.5 0.019,19.408c-0.81,4.43 -4.781,12.582 -14.258,12.582Zm1.763,-36.195c-0.006,0.791 -2.47,-10.826 -6.746,-9.278c-5.092,1.843 -3.597,8.44 -1.693,16.389c0.47,1.967 0.957,4 1.25,5.899c0.379,2.47 0.288,5.229 0.199,7.896c-0.138,4.143 -0.28,8.426 1.505,10.273c0.782,0.808 2,1.201 3.723,1.201c8.723,0 10.452,-9.16 10.521,-9.549c0.015,-0.082 0.035,-0.168 0.06,-0.247c1.7,-5.386 2.801,-9.943 -0.013,-17.334c-4.394,-11.541 -8.756,-11.775 -8.806,-5.25Z"/><path d="M33.689,57.047c-2.5,-0.999 -8.751,3.251 -8.001,7.251c0.75,3.999 5.25,3.999 8.25,0.999c3,-3 2.174,-7.281 -0.249,-8.25Z" style="fill:#ffd800;"/><path d="M29.317,68.561c-2.451,0 -4.265,-1.554 -4.734,-4.056c-0.305,-1.63 0.274,-3.429 1.632,-5.064c1.763,-2.125 4.546,-3.667 6.618,-3.667c0.466,0 0.895,0.077 1.273,0.229c1.379,0.551 2.409,1.89 2.757,3.584c0.468,2.273 -0.328,4.705 -2.129,6.505c-1.568,1.569 -3.543,2.469 -5.417,2.469Zm3.515,-10.536c-1.211,0 -3.424,1.091 -4.887,2.853c-0.534,0.644 -1.394,1.917 -1.151,3.213c0.344,1.835 1.561,2.22 2.522,2.22c1.264,0 2.693,-0.676 3.827,-1.809c1.263,-1.264 1.83,-2.932 1.515,-4.462c-0.195,-0.95 -0.714,-1.679 -1.388,-1.949c-0.109,-0.043 -0.261,-0.066 -0.438,-0.066Z"/><path d="M17.596,92.133c-8.191,-6.302 -17.445,-0.671 -15.432,9.057c1.654,7.993 15.164,22.841 24.824,25.16c8.387,2.013 6.692,-7.037 5.367,-10.064c-2.348,-5.367 -10.399,-20.798 -14.759,-24.153Z" style="fill:#ffd800;"/><path d="M29.182,128.148c-0.775,0 -1.631,-0.11 -2.545,-0.33c-10.211,-2.451 -24.183,-17.782 -25.951,-26.322c-0.79,-3.819 -0.064,-7.35 2.043,-9.938c1.863,-2.286 4.678,-3.598 7.726,-3.598c2.744,0 5.531,1.03 8.062,2.977c4.97,3.824 13.403,20.585 15.222,24.744c0.757,1.73 2.259,6.923 0.154,10.143c-0.694,1.06 -2.075,2.324 -4.711,2.324Zm-14.138,-29.798c-5.561,-11.418 -14.53,-6.01 -5.986,3.776c1.588,1.818 -5.685,-4.897 -5.417,-1.241c0.445,6.085 14.75,21.85 23.698,23.998c0.685,0.164 1.305,0.247 1.842,0.247c1.396,0 1.914,-0.546 2.184,-0.958c1.091,-1.67 0.473,-5.301 -0.393,-7.279c-2.478,-5.663 -10.745,-24.097 -14.298,-24.313c-2.436,-0.148 -0.64,7.803 -1.63,5.77Z" style="stroke:#000;stroke-width:0.75px;"/><path d="M72.323,24.924l4.728,21.462" style="fill:#b27748;stroke:#000;stroke-width:2.25px;"/><path d="M78.117,56.124c-1.433,0.349 -2.877,-0.529 -3.226,-1.961l-2.028,-8.322c-0.349,-1.432 0.529,-2.876 1.961,-3.226l2.311,-0.563c1.432,-0.349 2.876,0.529 3.225,1.962l2.028,8.322c0.349,1.432 -0.529,2.876 -1.961,3.225l-2.31,0.563Z" style="fill:#b27748;stroke:#000;stroke-width:2.25px;"/><path d="M38.092,29.968l-4.638,21.482" style="fill:#b27748;stroke:#000;stroke-width:2.25px;"/><path d="M32.43,61.192c1.433,0.343 2.873,-0.541 3.216,-1.975l1.994,-8.331c0.343,-1.433 -0.541,-2.873 -1.975,-3.216l-2.313,-0.554c-1.433,-0.343 -2.873,0.541 -3.216,1.975l-1.994,8.331c-0.343,1.433 0.541,2.874 1.975,3.217l2.313,0.553Z" style="fill:#b27748;stroke:#000;stroke-width:2.25px;"/><path d="M91.219,30.01l4.728,21.462" style="fill:#b27748;stroke:#000;stroke-width:2.25px;"/><path d="M97.012,61.21c-1.432,0.349 -2.876,-0.529 -3.225,-1.961l-2.029,-8.322c-0.349,-1.432 0.529,-2.876 1.962,-3.225l2.31,-0.563c1.432,-0.35 2.876,0.528 3.225,1.961l2.028,8.322c0.349,1.432 -0.529,2.876 -1.961,3.225l-2.31,0.563Z" style="fill:#b27748;stroke:#000;stroke-width:2.25px;"/><path d="M108.063,34.238l4.728,21.463" style="fill:#b27748;stroke:#000;stroke-width:2.25px;"/><path d="M113.857,65.438c-1.432,0.349 -2.876,-0.529 -3.226,-1.961l-2.028,-8.322c-0.349,-1.432 0.529,-2.876 1.961,-3.225l2.311,-0.563c1.432,-0.349 2.876,0.529 3.225,1.961l2.028,8.322c0.349,1.432 -0.529,2.876 -1.961,3.225l-2.31,0.563Z" style="fill:#b27748;stroke:#000;stroke-width:2.25px;"/><path d="M24.12,33.396l-4.638,21.482" style="fill:#b27748;stroke:#000;stroke-width:2.25px;"/><path d="M18.458,64.62c1.434,0.343 2.874,-0.541 3.217,-1.975l1.993,-8.331c0.343,-1.433 -0.541,-2.873 -1.974,-3.216l-2.313,-0.554c-1.434,-0.343 -2.874,0.541 -3.217,1.975l-1.993,8.331c-0.343,1.433 0.541,2.873 1.975,3.216l2.312,0.554Z" style="fill:#b27748;stroke:#000;stroke-width:2.25px;"/><path d="M97.833,20.85c19.278,5.095 18.221,16.453 1.232,12.23c-16.596,-4.124 -42.43,8.086 -62.082,7.307c-5.255,-0.208 -33.763,2.462 -0.684,-12.336c21.772,-9.74 45.001,-11.57 61.534,-7.201" style="fill:#945200;stroke:#000;stroke-width:3px;"/><path d="M39.828,31.853c-1.798,-7.129 -2.03,-23.982 1.522,-24.96c18.559,-5.111 41.641,-2.475 46.176,-4.405c2.849,-1.213 2.425,14.613 5.214,21.585c0.18,0.45 -16.155,-1.508 -28.947,0.654c-11.259,1.903 -19.09,5.789 -23.885,7.237c0.012,0.073 -0.061,-0.039 -0.08,-0.111Z" style="fill:#94531c;stroke:#000;stroke-width:2.25px;"/><path d="M40.161,8.898c0,0 -2.14,-3.744 14.421,-6.422c15.393,-2.489 36.59,-1.155 33.852,0.911c-11.668,8.802 -23.961,2.532 -30.84,5.052c-4.751,1.741 -7.291,5.475 -9.516,6.624l-7.917,-6.165Z" style="fill:#723a14;stroke:#000;stroke-width:2.25px;"/><path d="M80.141,5.579c2.356,1.129 -7.028,1.888 -8.618,1.779c-7.999,-0.551 -13.652,-1.424 -19.918,3.536c-1.092,0.865 -3.595,-2.605 0.607,-4.256c5.982,-2.352 22.451,-3.681 27.929,-1.059" style="fill:#94531c;"/><path d="M62.157,10.182c3.057,0.056 3.998,2.046 2.101,4.445c-1.896,2.398 -5.913,4.297 -8.97,4.24c-3.057,-0.056 -3.998,-2.047 -2.101,-4.445c1.896,-2.399 5.913,-4.297 8.97,-4.24" style="fill:#713a13;"/></svg>